<svg xmlns="http://www.w3.org/2000/svg" xmlns:xlink="http://www.w3.org/1999/xlink" width="1920" zoomAndPan="magnify" viewBox="0 0 1440 809.999993" height="1080" preserveAspectRatio="xMidYMid meet" version="1.0"><defs><clipPath id="e9ea1b09dc"><path d="M 884 220.671875 L 1089 220.671875 L 1089 624.921875 L 884 624.921875 Z M 884 220.671875 " clip-rule="nonzero"/></clipPath><clipPath id="2ce7638235"><path d="M 871.074219 249.214844 L 1080 249.214844 L 1080 624.921875 L 871.074219 624.921875 Z M 871.074219 249.214844 " clip-rule="nonzero"/></clipPath><clipPath id="1b3b685c47"><path d="M 871.074219 249 L 1083 249 L 1083 624.921875 L 871.074219 624.921875 Z M 871.074219 249 " clip-rule="nonzero"/></clipPath><clipPath id="bd02b342b0"><path d="M 1084 221.539062 L 1278 221.539062 L 1278 690.921875 L 1084 690.921875 Z M 1084 221.539062 " clip-rule="nonzero"/></clipPath><clipPath id="8e0a91dbd7"><path d="M 1093 250 L 1242 250 L 1242 690.921875 L 1093 690.921875 Z M 1093 250 " clip-rule="nonzero"/></clipPath><clipPath id="46bb2cc7c0"><path d="M 1076 249 L 1243 249 L 1243 690.921875 L 1076 690.921875 Z M 1076 249 " clip-rule="nonzero"/></clipPath><clipPath id="a1e0f9433e"><path d="M 1122.046875 278 L 1310.382812 278 L 1310.382812 413.699219 L 1122.046875 413.699219 Z M 1122.046875 278 " clip-rule="nonzero"/></clipPath><clipPath id="7b96489f7b"><path d="M 1226 476 L 1254 476 L 1254 505 L 1226 505 Z M 1226 476 " clip-rule="nonzero"/></clipPath><clipPath id="25ff961129"><path d="M 1220.535156 482.691406 L 1250.832031 471.628906 L 1261.890625 501.921875 L 1231.597656 512.984375 Z M 1220.535156 482.691406 " clip-rule="nonzero"/></clipPath><clipPath id="a82445ce95"><path d="M 1220.535156 482.691406 L 1250.832031 471.628906 L 1261.890625 501.921875 L 1231.597656 512.984375 Z M 1220.535156 482.691406 " clip-rule="nonzero"/></clipPath><clipPath id="0e51dbf9c0"><path d="M 1220.535156 482.691406 L 1250.832031 471.628906 L 1261.890625 501.921875 L 1231.597656 512.984375 Z M 1220.535156 482.691406 " clip-rule="nonzero"/></clipPath><clipPath id="9289bcf1cc"><path d="M 1237 479 L 1252 479 L 1252 503 L 1237 503 Z M 1237 479 " clip-rule="nonzero"/></clipPath><clipPath id="265968188a"><path d="M 1220.535156 482.691406 L 1250.832031 471.628906 L 1261.890625 501.921875 L 1231.597656 512.984375 Z M 1220.535156 482.691406 " clip-rule="nonzero"/></clipPath><clipPath id="a3875ec761"><path d="M 1220.535156 482.691406 L 1250.832031 471.628906 L 1261.890625 501.921875 L 1231.597656 512.984375 Z M 1220.535156 482.691406 " clip-rule="nonzero"/></clipPath><clipPath id="cc122a872a"><path d="M 1220.535156 482.691406 L 1250.832031 471.628906 L 1261.890625 501.921875 L 1231.597656 512.984375 Z M 1220.535156 482.691406 " clip-rule="nonzero"/></clipPath><clipPath id="152cccc5ab"><path d="M 1238 483 L 1249 483 L 1249 500 L 1238 500 Z M 1238 483 " clip-rule="nonzero"/></clipPath><clipPath id="c308b9dfb0"><path d="M 1220.535156 482.691406 L 1250.832031 471.628906 L 1261.890625 501.921875 L 1231.597656 512.984375 Z M 1220.535156 482.691406 " clip-rule="nonzero"/></clipPath><clipPath id="9b63ffd726"><path d="M 1220.535156 482.691406 L 1250.832031 471.628906 L 1261.890625 501.921875 L 1231.597656 512.984375 Z M 1220.535156 482.691406 " clip-rule="nonzero"/></clipPath><clipPath id="0f6b00114a"><path d="M 1220.535156 482.691406 L 1250.832031 471.628906 L 1261.890625 501.921875 L 1231.597656 512.984375 Z M 1220.535156 482.691406 " clip-rule="nonzero"/></clipPath><clipPath id="086d65b76c"><path d="M 1232 485 L 1244 485 L 1244 500 L 1232 500 Z M 1232 485 " clip-rule="nonzero"/></clipPath><clipPath id="e57753245c"><path d="M 1220.535156 482.691406 L 1250.832031 471.628906 L 1261.890625 501.921875 L 1231.597656 512.984375 Z M 1220.535156 482.691406 " clip-rule="nonzero"/></clipPath><clipPath id="8ae9a91eb6"><path d="M 1220.535156 482.691406 L 1250.832031 471.628906 L 1261.890625 501.921875 L 1231.597656 512.984375 Z M 1220.535156 482.691406 " clip-rule="nonzero"/></clipPath><clipPath id="3c5d020950"><path d="M 1220.535156 482.691406 L 1250.832031 471.628906 L 1261.890625 501.921875 L 1231.597656 512.984375 Z M 1220.535156 482.691406 " clip-rule="nonzero"/></clipPath><clipPath id="4946c718b3"><path d="M 1200 291 L 1221 291 L 1221 317 L 1200 317 Z M 1200 291 " clip-rule="nonzero"/></clipPath><clipPath id="f92a8438be"><path d="M 1220.53125 314.585938 L 1200.378906 316.570312 L 1198.027344 292.6875 L 1218.179688 290.699219 Z M 1220.53125 314.585938 " clip-rule="nonzero"/></clipPath><clipPath id="af4f011dca"><path d="M 1220.53125 314.585938 L 1200.378906 316.570312 L 1198.027344 292.6875 L 1218.179688 290.699219 Z M 1220.53125 314.585938 " clip-rule="nonzero"/></clipPath><clipPath id="a6230b67ff"><path d="M 1220.53125 314.585938 L 1200.378906 316.570312 L 1198.027344 292.6875 L 1218.179688 290.699219 Z M 1220.53125 314.585938 " clip-rule="nonzero"/></clipPath><clipPath id="45297abd63"><path d="M 946 513 L 969 513 L 969 536 L 946 536 Z M 946 513 " clip-rule="nonzero"/></clipPath><clipPath id="de0cff134f"><path d="M 951.582031 513.125 L 968.71875 518.636719 L 963.207031 535.773438 L 946.074219 530.261719 Z M 951.582031 513.125 " clip-rule="nonzero"/></clipPath><clipPath id="5f2dfcadac"><path d="M 951.582031 513.125 L 968.71875 518.636719 L 963.207031 535.773438 L 946.074219 530.261719 Z M 951.582031 513.125 " clip-rule="nonzero"/></clipPath><clipPath id="548b304505"><path d="M 951.582031 513.125 L 968.71875 518.636719 L 963.207031 535.773438 L 946.074219 530.261719 Z M 951.582031 513.125 " clip-rule="nonzero"/></clipPath><clipPath id="c62788b496"><path d="M 951 517 L 963 517 L 963 531 L 951 531 Z M 951 517 " clip-rule="nonzero"/></clipPath><clipPath id="a65b80375f"><path d="M 951.582031 513.125 L 968.71875 518.636719 L 963.207031 535.773438 L 946.074219 530.261719 Z M 951.582031 513.125 " clip-rule="nonzero"/></clipPath><clipPath id="df1934d091"><path d="M 951.582031 513.125 L 968.71875 518.636719 L 963.207031 535.773438 L 946.074219 530.261719 Z M 951.582031 513.125 " clip-rule="nonzero"/></clipPath><clipPath id="1e86c89a19"><path d="M 951.582031 513.125 L 968.71875 518.636719 L 963.207031 535.773438 L 946.074219 530.261719 Z M 951.582031 513.125 " clip-rule="nonzero"/></clipPath><clipPath id="a3f7863421"><path d="M 946 221 L 969 221 L 969 243 L 946 243 Z M 946 221 " clip-rule="nonzero"/></clipPath><clipPath id="0f1b73a322"><path d="M 951.582031 220.671875 L 968.71875 226.179688 L 963.207031 243.316406 L 946.074219 237.804688 Z M 951.582031 220.671875 " clip-rule="nonzero"/></clipPath><clipPath id="408809f99f"><path d="M 951.582031 220.671875 L 968.71875 226.179688 L 963.207031 243.316406 L 946.074219 237.804688 Z M 951.582031 220.671875 " clip-rule="nonzero"/></clipPath><clipPath id="87e08eda54"><path d="M 951.582031 220.671875 L 968.71875 226.179688 L 963.207031 243.316406 L 946.074219 237.804688 Z M 951.582031 220.671875 " clip-rule="nonzero"/></clipPath><clipPath id="03bc814ef8"><path d="M 951 224 L 963 224 L 963 239 L 951 239 Z M 951 224 " clip-rule="nonzero"/></clipPath><clipPath id="8f1cbe5842"><path d="M 951.582031 220.671875 L 968.71875 226.179688 L 963.207031 243.316406 L 946.074219 237.804688 Z M 951.582031 220.671875 " clip-rule="nonzero"/></clipPath><clipPath id="7d55c4f407"><path d="M 951.582031 220.671875 L 968.71875 226.179688 L 963.207031 243.316406 L 946.074219 237.804688 Z M 951.582031 220.671875 " clip-rule="nonzero"/></clipPath><clipPath id="4df82daf18"><path d="M 951.582031 220.671875 L 968.71875 226.179688 L 963.207031 243.316406 L 946.074219 237.804688 Z M 951.582031 220.671875 " clip-rule="nonzero"/></clipPath><clipPath id="6c71ac6a71"><path d="M 888 499 L 909 499 L 909 525 L 888 525 Z M 888 499 " clip-rule="nonzero"/></clipPath><clipPath id="30d37ab1db"><path d="M 908.53125 522.585938 L 888.378906 524.570312 L 886.027344 500.6875 L 906.179688 498.703125 Z M 908.53125 522.585938 " clip-rule="nonzero"/></clipPath><clipPath id="e3c7c9d729"><path d="M 908.53125 522.585938 L 888.378906 524.570312 L 886.027344 500.6875 L 906.179688 498.703125 Z M 908.53125 522.585938 " clip-rule="nonzero"/></clipPath><clipPath id="aa0205e6cd"><path d="M 908.53125 522.585938 L 888.378906 524.570312 L 886.027344 500.6875 L 906.179688 498.703125 Z M 908.53125 522.585938 " clip-rule="nonzero"/></clipPath><clipPath id="fc55312c37"><path d="M 1084 264 L 1105 264 L 1105 286 L 1084 286 Z M 1084 264 " clip-rule="nonzero"/></clipPath><clipPath id="6ab3955d36"><path d="M 1080.734375 269.199219 L 1102.574219 261.222656 L 1110.550781 283.0625 L 1088.710938 291.039062 Z M 1080.734375 269.199219 " clip-rule="nonzero"/></clipPath><clipPath id="ac40eab2f5"><path d="M 1080.734375 269.199219 L 1102.574219 261.222656 L 1110.550781 283.0625 L 1088.710938 291.039062 Z M 1080.734375 269.199219 " clip-rule="nonzero"/></clipPath><clipPath id="eda83848f9"><path d="M 1080.734375 269.199219 L 1102.574219 261.222656 L 1110.550781 283.0625 L 1088.710938 291.039062 Z M 1080.734375 269.199219 " clip-rule="nonzero"/></clipPath><clipPath id="c76287f1c4"><path d="M 1092 266 L 1103 266 L 1103 284 L 1092 284 Z M 1092 266 " clip-rule="nonzero"/></clipPath><clipPath id="7d43079a75"><path d="M 1080.734375 269.199219 L 1102.574219 261.222656 L 1110.550781 283.0625 L 1088.710938 291.039062 Z M 1080.734375 269.199219 " clip-rule="nonzero"/></clipPath><clipPath id="615215480a"><path d="M 1080.734375 269.199219 L 1102.574219 261.222656 L 1110.550781 283.0625 L 1088.710938 291.039062 Z M 1080.734375 269.199219 " clip-rule="nonzero"/></clipPath><clipPath id="9113877c5f"><path d="M 1080.734375 269.199219 L 1102.574219 261.222656 L 1110.550781 283.0625 L 1088.710938 291.039062 Z M 1080.734375 269.199219 " clip-rule="nonzero"/></clipPath><clipPath id="e671c33160"><path d="M 1093 269 L 1101 269 L 1101 282 L 1093 282 Z M 1093 269 " clip-rule="nonzero"/></clipPath><clipPath id="af55c5dcfe"><path d="M 1080.734375 269.199219 L 1102.574219 261.222656 L 1110.550781 283.0625 L 1088.710938 291.039062 Z M 1080.734375 269.199219 " clip-rule="nonzero"/></clipPath><clipPath id="859e552030"><path d="M 1080.734375 269.199219 L 1102.574219 261.222656 L 1110.550781 283.0625 L 1088.710938 291.039062 Z M 1080.734375 269.199219 " clip-rule="nonzero"/></clipPath><clipPath id="6978a0756e"><path d="M 1080.734375 269.199219 L 1102.574219 261.222656 L 1110.550781 283.0625 L 1088.710938 291.039062 Z M 1080.734375 269.199219 " clip-rule="nonzero"/></clipPath><clipPath id="eeb0cbc50a"><path d="M 1089 271 L 1098 271 L 1098 282 L 1089 282 Z M 1089 271 " clip-rule="nonzero"/></clipPath><clipPath id="3781386202"><path d="M 1080.734375 269.199219 L 1102.574219 261.222656 L 1110.550781 283.0625 L 1088.710938 291.039062 Z M 1080.734375 269.199219 " clip-rule="nonzero"/></clipPath><clipPath id="bc50edfa73"><path d="M 1080.734375 269.199219 L 1102.574219 261.222656 L 1110.550781 283.0625 L 1088.710938 291.039062 Z M 1080.734375 269.199219 " clip-rule="nonzero"/></clipPath><clipPath id="383f399a74"><path d="M 1080.734375 269.199219 L 1102.574219 261.222656 L 1110.550781 283.0625 L 1088.710938 291.039062 Z M 1080.734375 269.199219 " clip-rule="nonzero"/></clipPath><clipPath id="0fdf874554"><path d="M 1240.050781 261.3125 L 1261.800781 261.3125 L 1261.800781 283.0625 L 1240.050781 283.0625 Z M 1240.050781 261.3125 " clip-rule="nonzero"/></clipPath><clipPath id="659994f4cd"><path d="M 1069.71875 567 L 1091.46875 567 L 1091.46875 588.75 L 1069.71875 588.75 Z M 1069.71875 567 " clip-rule="nonzero"/></clipPath></defs><rect x="-144" width="1728" fill="#ffffff" y="-80.999999" height="971.999992" fill-opacity="1"/><rect x="-144" width="1728" fill="#ffffff" y="-80.999999" height="971.999992" fill-opacity="1"/><rect x="-144" width="1728" fill="#ffffff" y="-80.999999" height="971.999992" fill-opacity="1"/><g clip-path="url(#e9ea1b09dc)"><path fill="#100f0d" d="M 1071.902344 749.667969 L 1088.285156 774.773438 L 1077.636719 790.605469 L 1071.632812 787.601562 L 1063.203125 806.5 C 1062.183594 808.785156 1059.914062 810.257812 1057.414062 810.257812 L 1028.765625 810.257812 C 1033.136719 802.070312 1050.335938 798.519531 1050.335938 798.519531 L 1051.972656 783.78125 Z M 969.25 805.273438 C 969.25 813.054688 965.972656 829.628906 965.972656 829.628906 L 940.992188 823.898438 L 942.425781 820.214844 L 885.390625 811.605469 C 884.132812 811.417969 883.910156 809.675781 885.089844 809.207031 C 895.03125 805.25 910.894531 804.453125 910.894531 804.453125 L 933.210938 794.425781 C 933.210938 794.425781 969.25 797.496094 969.25 805.273438 Z M 1066.445312 258.007812 C 1078.320312 252.136719 1083.234375 227.984375 1081.457031 226.625 C 1079.683594 225.257812 1075.042969 228.398438 1075.042969 228.398438 C 1075.320312 223.074219 1074.769531 221.570312 1071.902344 222.664062 C 1069.039062 223.753906 1065.214844 227.714844 1065.214844 227.714844 C 1065.214844 227.714844 1065.351562 219.796875 1061.9375 220.753906 C 1058.527344 221.707031 1048.835938 227.984375 1048.835938 227.984375 C 1048.835938 227.984375 1040.914062 226.347656 1031.910156 224.714844 C 1022.898438 223.074219 1009.246094 223.753906 1005.425781 247.226562 C 1001.601562 270.695312 1019.210938 279.019531 1019.210938 279.019531 C 1019.210938 279.019531 1054.566406 263.875 1066.445312 258.007812 " fill-opacity="1" fill-rule="nonzero"/></g><g clip-path="url(#2ce7638235)"><path fill="#ffffff" d="M 882.160156 415.890625 L 882.160156 449.734375 L 877.519531 449.734375 L 877.519531 484.9375 L 935.5625 484.8125 C 935.421875 484.851562 935.277344 484.894531 935.15625 484.9375 C 928.46875 487.390625 946.316406 502.40625 964.203125 502.40625 C 976.632812 502.40625 986.277344 499.574219 991.011719 497.84375 C 980.332031 534.589844 965.78125 585.257812 959.421875 610.207031 C 948.773438 651.960938 967.609375 664.246094 967.609375 664.246094 L 933.210938 794.425781 L 972.527344 809.160156 L 1005.289062 715.007812 L 1051.972656 783.78125 L 1076.546875 746.9375 C 1050.335938 680.617188 1028.222656 653.601562 1028.222656 653.601562 C 1028.222656 653.601562 1047.878906 602.015625 1068.355469 547.164062 C 1088.828125 492.308594 1075.726562 454.644531 1075.726562 454.644531 L 1003.648438 454.644531 C 1003.648438 454.644531 998.652344 471.574219 991.910156 494.765625 L 974.164062 481.253906 L 971.777344 484.9375 C 971.777344 484.9375 970.78125 484.855469 969.128906 484.738281 L 971.777344 484.734375 L 1016.210938 415.890625 L 1008.566406 415.890625 L 1007.199219 398.96875 L 1003.101562 398.96875 L 1014.84375 362.394531 L 1020.03125 362.394531 L 1023.664062 327.003906 L 1046.515625 312.59375 L 1046.515625 297.855469 L 1057.097656 299.453125 C 1063.417969 300.414062 1069.125 295.582031 1069.226562 289.195312 L 1069.859375 249.820312 C 1064.398438 260.597656 1037.703125 252.589844 1035.316406 261.554688 C 1033 270.289062 1030.40625 271.515625 1030.40625 271.515625 C 1030.40625 271.515625 1021.394531 260.191406 1016.894531 262.648438 C 1013.929688 264.257812 1015.746094 272.238281 1017.339844 277.523438 L 892.53125 277.523438 C 892.53125 277.523438 888.441406 292.804688 892.53125 304.8125 L 895.261719 304.8125 C 895.261719 304.8125 894.445312 310 894.445312 319.820312 C 894.445312 329.648438 899.085938 333.46875 899.085938 333.46875 L 899.085938 338.65625 C 899.085938 338.65625 894.445312 340.019531 893.625 343.296875 C 892.804688 346.566406 893.625 363.214844 893.625 363.214844 L 887.34375 363.214844 C 887.34375 363.214844 876.347656 380.800781 873.386719 392.996094 C 870.351562 405.519531 872.328125 420.257812 872.328125 420.257812 C 872.328125 420.257812 879.976562 415.890625 882.160156 415.890625 " fill-opacity="1" fill-rule="nonzero"/></g><path fill="#c85103" d="M 974.527344 484.9375 L 999.554688 505.40625 L 1056.578125 453.925781 L 1076.238281 453.824219 L 1081.457031 419.4375 C 1097.839844 394.871094 1110.125 355.574219 1090.46875 337.566406 C 1070.8125 319.550781 1050.335938 300.71875 1050.335938 300.71875 L 1022.65625 318.632812 L 1023.359375 329.386719 L 1020.03125 362.394531 L 1014.84375 362.394531 L 1003.105469 398.96875 L 1007.199219 398.96875 L 1008.566406 415.890625 L 1016.210938 415.890625 L 972.800781 483.027344 L 974.527344 484.9375 " fill-opacity="1" fill-rule="nonzero"/><g clip-path="url(#1b3b685c47)"><path fill="#100f0d" d="M 1045.726562 264.765625 C 1048.898438 261.414062 1054.75 262.503906 1054.808594 262.519531 C 1055.1875 262.589844 1055.554688 262.34375 1055.628906 261.960938 C 1055.707031 261.582031 1055.457031 261.214844 1055.074219 261.140625 C 1054.808594 261.085938 1048.40625 259.878906 1044.707031 263.800781 C 1044.441406 264.082031 1044.453125 264.53125 1044.734375 264.796875 C 1044.871094 264.921875 1045.046875 264.984375 1045.214844 264.984375 C 1045.402344 264.984375 1045.589844 264.914062 1045.726562 264.765625 Z M 984.511719 309.03125 C 984.523438 309.03125 984.53125 309.023438 984.542969 309.023438 C 984.695312 309.023438 984.835938 309.085938 984.953125 309.175781 L 987.304688 309.949219 L 990.710938 303.875 L 968.953125 303.875 Z M 872.90625 419.128906 C 875.09375 417.921875 880.253906 415.1875 882.160156 415.1875 C 882.546875 415.1875 882.859375 415.5 882.859375 415.890625 L 882.859375 449.734375 C 882.859375 450.121094 882.546875 450.433594 882.160156 450.433594 L 878.222656 450.433594 L 878.222656 484.234375 L 971.394531 484.03125 L 972.664062 482.0625 C 972.683594 481.980469 972.707031 481.898438 972.757812 481.824219 L 1000.714844 438.601562 L 1014.921875 416.589844 L 1010.527344 416.589844 C 1010.414062 416.667969 1010.285156 416.726562 1010.132812 416.726562 L 961.539062 416.726562 C 961.152344 416.726562 960.835938 416.414062 960.835938 416.023438 C 960.835938 415.636719 961.152344 415.328125 961.539062 415.328125 L 1007.816406 415.328125 L 1006.554688 399.671875 L 1003.101562 399.671875 C 1002.878906 399.671875 1002.667969 399.566406 1002.539062 399.382812 C 1002.402344 399.203125 1002.367188 398.96875 1002.4375 398.757812 L 1013.882812 363.097656 L 940.582031 363.097656 C 940.195312 363.097656 939.878906 362.785156 939.878906 362.394531 C 939.878906 362.011719 940.195312 361.699219 940.582031 361.699219 L 975.394531 361.699219 C 975.515625 358.097656 977.101562 353.183594 978.949219 347.523438 C 981.238281 340.496094 983.839844 332.527344 983.839844 325.828125 L 983.839844 310.28125 L 964.574219 303.90625 L 942.902344 303.90625 C 942.519531 303.90625 942.203125 303.589844 942.203125 303.203125 C 942.203125 302.8125 942.519531 302.5 942.902344 302.5 L 964.457031 302.5 C 964.507812 302.488281 964.554688 302.476562 964.609375 302.476562 L 984.109375 302.476562 L 984.109375 280.792969 C 984.109375 280.40625 984.425781 280.097656 984.8125 280.097656 C 985.199219 280.097656 985.511719 280.40625 985.511719 280.792969 L 985.511719 302.476562 L 991.910156 302.476562 C 992.160156 302.476562 992.386719 302.605469 992.515625 302.820312 C 992.640625 303.039062 992.644531 303.300781 992.523438 303.515625 L 988.246094 311.144531 C 988.121094 311.371094 987.882812 311.5 987.636719 311.5 C 987.558594 311.5 987.484375 311.492188 987.414062 311.46875 L 985.238281 310.746094 L 985.238281 325.828125 C 985.238281 332.75 982.605469 340.832031 980.285156 347.957031 C 978.550781 353.273438 976.925781 358.285156 976.800781 361.699219 L 1019.394531 361.699219 L 1023.007812 326.527344 L 1020.589844 310.648438 C 1020.578125 310.601562 1020.574219 310.550781 1020.578125 310.503906 L 1022.5625 278.21875 L 893.082031 278.21875 C 892.441406 280.941406 889.71875 293.753906 893.042969 304.109375 L 895.261719 304.109375 C 895.46875 304.109375 895.660156 304.199219 895.796875 304.355469 C 895.925781 304.511719 895.984375 304.71875 895.957031 304.921875 C 895.945312 304.972656 895.148438 310.179688 895.148438 319.824219 C 895.148438 329.148438 899.492188 332.890625 899.535156 332.929688 C 899.691406 333.0625 899.789062 333.257812 899.789062 333.46875 L 899.789062 337.953125 L 971.027344 337.953125 C 971.414062 337.953125 971.730469 338.269531 971.730469 338.65625 C 971.730469 339.042969 971.414062 339.355469 971.027344 339.355469 L 899.21875 339.355469 C 899.214844 339.355469 899.210938 339.355469 899.207031 339.355469 C 898.640625 339.539062 894.96875 340.828125 894.308594 343.464844 C 893.675781 345.976562 894.046875 357.460938 894.324219 363.179688 C 894.335938 363.375 894.265625 363.558594 894.132812 363.699219 C 894.003906 363.839844 893.816406 363.917969 893.625 363.917969 L 887.738281 363.917969 C 886.222656 366.386719 876.746094 382.121094 874.070312 393.167969 C 871.558594 403.523438 872.53125 415.574219 872.90625 419.128906 Z M 1051.96875 782.527344 L 1075.757812 746.855469 C 1052.625 688.414062 1032.511719 660.386719 1028.4375 655.023438 L 1006.074219 714.914062 Z M 872.703125 392.835938 C 875.660156 380.664062 886.300781 363.570312 886.753906 362.847656 C 886.878906 362.636719 887.105469 362.511719 887.34375 362.511719 L 892.890625 362.511719 C 892.742188 359.210938 892.199219 346.097656 892.945312 343.125 C 893.691406 340.148438 897.082031 338.632812 898.386719 338.152344 L 898.386719 333.777344 C 897.367188 332.789062 893.746094 328.644531 893.746094 319.824219 C 893.746094 312.148438 894.234375 307.328125 894.457031 305.515625 L 892.53125 305.515625 C 892.230469 305.515625 891.964844 305.320312 891.867188 305.039062 C 887.75 292.96875 891.683594 277.972656 891.855469 277.339844 C 891.9375 277.03125 892.21875 276.820312 892.53125 276.820312 L 1016.667969 276.820312 C 1014.273438 268.011719 1014.238281 263.292969 1016.554688 262.03125 C 1020.992188 259.613281 1028.464844 268.070312 1030.511719 270.535156 C 1031.292969 269.757812 1033.027344 267.453125 1034.644531 261.375 C 1035.914062 256.589844 1042.960938 256.171875 1050.425781 255.726562 C 1057.992188 255.273438 1066.566406 254.761719 1069.230469 249.5 C 1069.378906 249.210938 1069.707031 249.058594 1070.027344 249.136719 C 1070.34375 249.214844 1070.5625 249.5 1070.554688 249.832031 L 1069.929688 289.207031 C 1069.878906 292.453125 1068.425781 295.519531 1065.949219 297.617188 C 1063.46875 299.710938 1060.207031 300.636719 1056.996094 300.148438 L 1047.214844 298.667969 L 1047.214844 302.738281 C 1047.214844 303.121094 1046.902344 303.433594 1046.515625 303.433594 C 1046.128906 303.433594 1045.8125 303.121094 1045.8125 302.738281 L 1045.8125 298.441406 L 1041.714844 297.722656 C 1041.335938 297.65625 1041.078125 297.292969 1041.148438 296.914062 C 1041.214844 296.53125 1041.570312 296.277344 1041.957031 296.34375 L 1046.632812 297.160156 C 1046.636719 297.160156 1046.636719 297.160156 1046.636719 297.160156 L 1057.203125 298.761719 C 1060.015625 299.1875 1062.871094 298.378906 1065.042969 296.546875 C 1067.210938 294.707031 1068.484375 292.027344 1068.527344 289.1875 L 1069.121094 252.09375 C 1065.269531 256.246094 1057.480469 256.710938 1050.507812 257.125 C 1043.566406 257.539062 1037.011719 257.933594 1035.996094 261.738281 C 1033.660156 270.53125 1031 272.011719 1030.707031 272.152344 C 1030.410156 272.292969 1030.0625 272.207031 1029.855469 271.953125 C 1027.613281 269.136719 1020.488281 261.488281 1017.230469 263.265625 C 1016.300781 263.769531 1015.195312 266.210938 1018.121094 276.820312 L 1023.304688 276.820312 C 1023.5 276.820312 1023.683594 276.898438 1023.820312 277.042969 C 1023.949219 277.183594 1024.019531 277.371094 1024.007812 277.566406 L 1021.984375 310.511719 L 1023.9375 323.292969 L 1037.199219 330.449219 L 1057.816406 309.136719 C 1058.085938 308.855469 1058.527344 308.851562 1058.808594 309.117188 C 1059.085938 309.386719 1059.097656 309.828125 1058.824219 310.109375 L 1037.839844 331.804688 C 1037.703125 331.945312 1037.519531 332.019531 1037.335938 332.019531 C 1037.21875 332.019531 1037.109375 331.996094 1037 331.9375 L 1024.203125 325.027344 L 1024.410156 326.40625 C 1024.421875 326.460938 1024.421875 326.519531 1024.414062 326.582031 L 1020.730469 362.46875 C 1020.691406 362.828125 1020.390625 363.097656 1020.03125 363.097656 L 1015.355469 363.097656 L 1004.066406 398.265625 L 1007.199219 398.265625 C 1007.566406 398.265625 1007.867188 398.546875 1007.898438 398.910156 L 1009.210938 415.1875 L 1015.859375 415.1875 L 1057.664062 350.550781 C 1057.875 350.226562 1058.308594 350.136719 1058.636719 350.347656 C 1058.960938 350.558594 1059.050781 350.992188 1058.84375 351.320312 L 1001.523438 439.933594 L 983.492188 467.875 L 1012.023438 492.320312 C 1012.316406 492.574219 1012.355469 493.015625 1012.097656 493.3125 C 1011.960938 493.472656 1011.761719 493.554688 1011.570312 493.554688 C 1011.402344 493.554688 1011.242188 493.496094 1011.113281 493.382812 L 982.722656 469.0625 L 972.363281 485.113281 C 972.234375 485.3125 972.015625 485.433594 971.777344 485.433594 L 971.777344 485.636719 L 950.027344 485.636719 C 950.085938 485.777344 950.109375 485.933594 950.066406 486.085938 C 949.964844 486.460938 949.570312 486.679688 949.203125 486.578125 C 947.714844 486.175781 943.511719 485.371094 942 486.523438 C 941.65625 486.789062 941.492188 487.144531 941.492188 487.644531 C 941.492188 491.046875 951.089844 494.808594 957.140625 496.378906 C 957.515625 496.476562 957.742188 496.859375 957.644531 497.234375 C 957.5625 497.546875 957.277344 497.757812 956.964844 497.757812 C 956.90625 497.757812 956.851562 497.75 956.785156 497.738281 C 955.078125 497.292969 940.089844 493.242188 940.089844 487.644531 C 940.089844 486.835938 940.378906 486.15625 940.910156 485.636719 L 935.15625 485.636719 C 934.730469 485.636719 934.570312 485.734375 934.53125 485.761719 C 934.511719 485.777344 934.476562 485.804688 934.476562 485.9375 C 934.476562 488.753906 948.933594 501.703125 964.203125 501.703125 C 973.921875 501.703125 984.515625 499.449219 990.636719 497.515625 L 990.929688 498.441406 L 991.523438 498.609375 C 980.871094 535.625 964.082031 594.773438 960.105469 610.378906 C 951.023438 645.960938 963.707031 659.949219 967.164062 662.996094 L 1000.777344 509.625 L 1002.152344 509.925781 L 968.402344 663.921875 L 968.421875 663.9375 L 934.050781 793.992188 L 972.101562 808.253906 L 1005.085938 713.457031 L 1005.105469 713.492188 L 1027.421875 653.730469 L 1027.566406 653.351562 C 1027.761719 652.832031 1047.457031 601.144531 1067.699219 546.914062 C 1086.625 496.214844 1076.597656 459.859375 1075.210938 455.347656 L 1056.570312 455.347656 L 1056.570312 455.253906 C 1056.511719 455.226562 1056.453125 455.199219 1056.40625 455.152344 C 1056.125 454.886719 1056.113281 454.445312 1056.378906 454.164062 C 1056.4375 454.09375 1056.507812 454.023438 1056.570312 453.957031 L 1056.570312 453.941406 L 1056.578125 453.941406 C 1065.726562 444.132812 1080.707031 419.324219 1080.855469 419.074219 C 1081.058594 418.746094 1081.492188 418.636719 1081.820312 418.835938 C 1082.152344 419.035156 1082.257812 419.464844 1082.058594 419.800781 C 1081.914062 420.042969 1067.765625 443.46875 1058.476562 453.941406 L 1076.226562 453.941406 L 1076.390625 454.414062 C 1076.519531 454.792969 1089.339844 492.949219 1069.015625 547.410156 C 1049.671875 599.214844 1030.835938 648.703125 1029.019531 653.480469 C 1031.5625 656.730469 1052.742188 684.800781 1077.195312 746.679688 L 1077.332031 747.019531 L 1051.976562 785.039062 L 1005.492188 716.554688 L 973.1875 809.394531 L 972.949219 810.074219 L 932.375 794.859375 L 966.8125 664.53125 C 963.972656 662.382812 948.847656 648.820312 958.742188 610.035156 C 962.6875 594.546875 979.226562 536.289062 989.890625 499.210938 C 983.558594 501.082031 973.488281 503.105469 964.203125 503.105469 C 948.902344 503.105469 933.070312 490.355469 933.070312 485.9375 C 933.070312 485.78125 933.097656 485.644531 933.125 485.519531 L 877.519531 485.636719 C 877.332031 485.636719 877.15625 485.5625 877.023438 485.433594 C 876.894531 485.300781 876.816406 485.121094 876.816406 484.9375 L 876.816406 449.734375 C 876.816406 449.34375 877.128906 449.03125 877.519531 449.03125 L 881.457031 449.03125 L 881.457031 416.703125 C 879.464844 417.226562 875.210938 419.417969 872.679688 420.867188 C 872.472656 420.984375 872.230469 420.988281 872.019531 420.886719 C 871.808594 420.78125 871.664062 420.582031 871.636719 420.347656 C 871.617188 420.203125 869.671875 405.339844 872.703125 392.835938 Z M 1050.847656 280.5 C 1050.53125 280.726562 1050.464844 281.164062 1050.6875 281.476562 C 1053.695312 285.667969 1059.808594 286.539062 1060.070312 286.574219 C 1060.101562 286.578125 1060.132812 286.578125 1060.164062 286.578125 C 1060.507812 286.578125 1060.8125 286.328125 1060.855469 285.972656 C 1060.910156 285.589844 1060.644531 285.234375 1060.261719 285.183594 C 1060.203125 285.175781 1054.480469 284.351562 1051.828125 280.660156 C 1051.601562 280.34375 1051.167969 280.269531 1050.847656 280.5 Z M 1067.214844 281.023438 C 1067.339844 280.8125 1067.351562 280.550781 1067.234375 280.335938 L 1064.0625 274.292969 C 1063.882812 273.953125 1063.457031 273.820312 1063.117188 273.996094 C 1062.773438 274.183594 1062.640625 274.605469 1062.820312 274.949219 L 1065.453125 279.957031 L 1061.597656 279.957031 C 1061.210938 279.957031 1060.894531 280.269531 1060.894531 280.660156 C 1060.894531 281.046875 1061.210938 281.363281 1061.597656 281.363281 L 1066.613281 281.363281 C 1066.859375 281.363281 1067.089844 281.230469 1067.214844 281.023438 Z M 1067.863281 262.265625 C 1068.214844 262.421875 1068.628906 262.265625 1068.789062 261.90625 C 1068.945312 261.554688 1068.789062 261.140625 1068.4375 260.980469 C 1068.304688 260.921875 1065.25 259.609375 1062.492188 261.789062 C 1062.191406 262.027344 1062.136719 262.46875 1062.378906 262.773438 C 1062.515625 262.949219 1062.722656 263.042969 1062.925781 263.042969 C 1063.082031 263.042969 1063.234375 262.992188 1063.363281 262.890625 C 1065.464844 261.226562 1067.84375 262.25 1067.863281 262.265625 Z M 948.210938 457.96875 L 963.972656 450.433594 L 930.394531 450.433594 Z M 896.355469 449.03125 L 926.917969 449.03125 C 926.925781 449.03125 926.9375 449.03125 926.953125 449.03125 L 967.066406 449.03125 C 967.394531 449.03125 967.679688 449.257812 967.75 449.578125 C 967.820312 449.898438 967.664062 450.222656 967.367188 450.363281 L 948.53125 459.371094 C 948.433594 459.417969 948.332031 459.4375 948.226562 459.4375 C 948.136719 459.4375 948.042969 459.417969 947.957031 459.386719 L 926.792969 450.433594 L 896.355469 450.433594 C 895.964844 450.433594 895.652344 450.121094 895.652344 449.734375 C 895.652344 449.34375 895.964844 449.03125 896.355469 449.03125 Z M 892.207031 409.023438 L 916.265625 398.578125 L 884.132812 398.578125 Z M 882.707031 397.175781 L 981.261719 397.175781 C 981.652344 397.175781 981.964844 397.492188 981.964844 397.878906 C 981.964844 398.265625 981.652344 398.578125 981.261719 398.578125 L 919.570312 398.578125 C 919.503906 398.667969 919.40625 398.746094 919.292969 398.792969 L 892.265625 410.527344 C 892.179688 410.570312 892.082031 410.585938 891.988281 410.585938 C 891.777344 410.585938 891.566406 410.488281 891.433594 410.3125 L 882.148438 398.304688 C 881.984375 398.097656 881.957031 397.804688 882.078125 397.566406 C 882.195312 397.324219 882.4375 397.175781 882.707031 397.175781 " fill-opacity="1" fill-rule="nonzero"/></g><path fill="#100f0d" d="M 1066.105469 268.171875 C 1066.949219 268.171875 1067.636719 268.859375 1067.636719 269.707031 C 1067.636719 270.554688 1066.949219 271.246094 1066.105469 271.246094 C 1065.253906 271.246094 1064.566406 270.554688 1064.566406 269.707031 C 1064.566406 268.859375 1065.253906 268.171875 1066.105469 268.171875 Z M 1051.359375 270.019531 C 1051.359375 270.859375 1052.042969 271.550781 1052.894531 271.550781 C 1053.742188 271.550781 1054.429688 270.859375 1054.429688 270.019531 C 1054.429688 269.167969 1053.742188 268.480469 1052.894531 268.480469 C 1052.042969 268.480469 1051.359375 269.167969 1051.359375 270.019531 " fill-opacity="1" fill-rule="nonzero"/><g clip-path="url(#bd02b342b0)"><path fill="#100f0d" d="M 1192.210938 253.683594 C 1192.210938 253.683594 1192.886719 239.546875 1182.085938 231.191406 C 1171.285156 222.832031 1157.496094 217.191406 1144.660156 225.953125 C 1131.820312 234.726562 1128.835938 240.636719 1129.917969 255.71875 C 1131.003906 270.808594 1133.3125 289.292969 1133.3125 289.292969 Z M 1099.351562 808.453125 L 1084.136719 832.910156 L 1102.613281 874.773438 L 1145 888.367188 C 1139.023438 873.140625 1122.175781 865.527344 1122.175781 865.527344 C 1115.65625 854.113281 1121.632812 843.242188 1121.632812 843.242188 Z M 1230.316406 868.792969 C 1230.316406 868.792969 1231.402344 882.925781 1245.53125 893.257812 C 1259.660156 903.585938 1280.3125 923.699219 1277.59375 938.375 L 1201.515625 903.585938 L 1192.273438 866.621094 L 1230.316406 868.792969 " fill-opacity="1" fill-rule="nonzero"/></g><path fill="#ffa500" d="M 1153.964844 313.480469 L 1159.125 324.351562 L 1161.84375 314.570312 L 1166.738281 308.859375 C 1166.738281 308.859375 1172.441406 314.570312 1186.570312 319.1875 C 1200.539062 323.757812 1210.207031 330.0625 1215.644531 346.640625 C 1221.074219 363.222656 1232.214844 395.839844 1239.007812 412.964844 C 1245.800781 430.085938 1241.183594 451.019531 1227.597656 453.738281 C 1214.011719 456.457031 1207.222656 448.570312 1207.222656 448.570312 C 1212.113281 465.425781 1207.222656 474.121094 1200.609375 474.121094 C 1194 474.121094 1106.144531 474.121094 1099.171875 474.121094 C 1092.195312 474.121094 1088.753906 466.78125 1088.753906 466.78125 C 1080.0625 467.324219 1064.027344 462.160156 1061.859375 443.949219 C 1059.683594 425.738281 1058.597656 415.136719 1055.878906 384.425781 C 1053.160156 353.707031 1067.832031 333.597656 1088.210938 324.078125 C 1108.59375 314.570312 1119.460938 309.945312 1119.460938 309.945312 L 1126.527344 300.707031 L 1153.964844 313.480469 " fill-opacity="1" fill-rule="nonzero"/><g clip-path="url(#8e0a91dbd7)"><path fill="#ffffff" d="M 1132.308594 411.050781 L 1132.320312 411.0625 L 1165.105469 411.246094 L 1167.824219 401.636719 C 1167.824219 401.636719 1160.9375 387.140625 1150.070312 386.78125 C 1140.050781 386.445312 1121.597656 392.566406 1118.773438 393.523438 L 1118.011719 392.640625 L 1107.328125 406.59375 L 1125.976562 423.746094 Z M 1181.769531 423.019531 C 1188.289062 427.730469 1200.972656 423.019531 1206.410156 420.121094 C 1211.839844 417.222656 1220.167969 416.5 1220.53125 413.238281 L 1169.085938 412.511719 C 1169.085938 412.511719 1175.253906 418.308594 1181.769531 423.019531 Z M 1158.402344 326.257812 L 1162.570312 314.296875 L 1164.425781 307.433594 C 1164.425781 307.433594 1172.101562 307.976562 1176.445312 299.28125 C 1180.800781 290.578125 1185.757812 279.367188 1188.335938 273.390625 C 1190.917969 267.40625 1191.1875 254.769531 1191.1875 254.769531 C 1191.1875 254.769531 1178.554688 255.308594 1167.550781 252.054688 C 1156.546875 248.792969 1152.199219 251.371094 1150.300781 257.898438 C 1148.394531 264.417969 1147.851562 270.667969 1144.863281 270.125 C 1141.875 269.585938 1141.46875 261.835938 1136.714844 263.742188 C 1131.957031 265.640625 1138.070312 277.605469 1136.847656 280.457031 C 1135.628906 283.308594 1133.585938 285.074219 1133.585938 285.074219 L 1129.238281 302.15625 L 1151.519531 313.933594 Z M 1241.183594 876.402344 L 1190.46875 876.402344 L 1161.480469 796.671875 L 1122.359375 851.035156 L 1093.371094 812.613281 L 1141.199219 732.160156 C 1141.199219 732.160156 1074.539062 535.730469 1099.171875 471.949219 L 1200.609375 471.949219 C 1200.609375 471.949219 1224.519531 533.558594 1238.285156 607.488281 C 1252.050781 681.421875 1210.753906 736.511719 1210.753906 736.511719 L 1241.183594 876.402344 " fill-opacity="1" fill-rule="nonzero"/></g><g clip-path="url(#46bb2cc7c0)"><path fill="#100f0d" d="M 1129.164062 303.210938 C 1129.746094 303.351562 1130.335938 303 1130.480469 302.414062 L 1134.566406 285.648438 C 1135.195312 285.042969 1136.792969 283.339844 1137.84375 280.882812 C 1138.449219 279.46875 1137.867188 277.101562 1137.128906 274.097656 C 1136.246094 270.503906 1135.035156 265.582031 1137.117188 264.75 C 1138.882812 264.039062 1139.6875 265.070312 1141.101562 267.582031 C 1142.011719 269.203125 1142.957031 270.882812 1144.667969 271.195312 C 1147.953125 271.8125 1148.925781 267.78125 1150.167969 262.703125 C 1150.519531 261.273438 1150.890625 259.746094 1151.339844 258.199219 C 1152.160156 255.398438 1153.367188 253.640625 1155.136719 252.671875 C 1157.664062 251.292969 1161.628906 251.429688 1167.242188 253.09375 C 1176.46875 255.832031 1186.65625 255.933594 1190.0625 255.886719 C 1189.925781 259.09375 1189.363281 268.269531 1187.339844 272.957031 C 1185.773438 276.578125 1180.308594 289.128906 1175.476562 298.789062 C 1171.53125 306.695312 1164.777344 306.355469 1164.5 306.347656 C 1164.402344 306.335938 1164.304688 306.363281 1164.203125 306.386719 C 1161.210938 306.203125 1157.03125 305.261719 1153.332031 301.9375 C 1149.335938 298.339844 1144.34375 293.078125 1144.292969 293.027344 C 1143.882812 292.589844 1143.195312 292.570312 1142.757812 292.988281 C 1142.324219 293.398438 1142.304688 294.089844 1142.714844 294.523438 C 1142.769531 294.574219 1147.820312 299.898438 1151.882812 303.554688 C 1155.730469 307.023438 1160.042969 308.183594 1163.320312 308.5 L 1163.292969 310.292969 C 1163.285156 310.890625 1163.761719 311.386719 1164.367188 311.394531 C 1164.367188 311.394531 1164.378906 311.394531 1164.378906 311.394531 C 1164.972656 311.394531 1165.457031 310.921875 1165.46875 310.324219 L 1165.496094 308.496094 C 1167.957031 308.304688 1173.773438 307.058594 1177.421875 299.765625 C 1182.277344 290.054688 1187.765625 277.449219 1189.335938 273.824219 C 1191.96875 267.714844 1192.269531 255.316406 1192.273438 254.789062 C 1192.285156 254.492188 1192.164062 254.203125 1191.949219 253.992188 C 1191.738281 253.78125 1191.4375 253.648438 1191.140625 253.683594 C 1191.019531 253.6875 1178.554688 254.179688 1167.859375 251.007812 C 1161.578125 249.144531 1157.203125 249.070312 1154.097656 250.765625 C 1151.8125 252.007812 1150.230469 254.242188 1149.253906 257.589844 C 1148.792969 259.167969 1148.414062 260.730469 1148.054688 262.1875 C 1147.207031 265.679688 1146.3125 269.273438 1145.058594 269.058594 C 1144.347656 268.929688 1143.664062 267.703125 1142.992188 266.519531 C 1141.808594 264.417969 1140.027344 261.242188 1136.308594 262.730469 C 1132.472656 264.265625 1133.886719 270.003906 1135.023438 274.613281 C 1135.53125 276.699219 1136.164062 279.285156 1135.847656 280.03125 C 1134.746094 282.597656 1132.890625 284.238281 1132.875 284.257812 C 1132.707031 284.402344 1132.585938 284.601562 1132.527344 284.816406 L 1128.367188 301.894531 C 1128.222656 302.480469 1128.582031 303.066406 1129.164062 303.210938 Z M 1160.285156 796.480469 L 1140.886719 734.808594 L 1094.683594 812.546875 L 1122.335938 849.199219 Z M 1242.246094 876.171875 C 1242.316406 876.492188 1242.234375 876.828125 1242.03125 877.082031 C 1241.824219 877.34375 1241.511719 877.492188 1241.183594 877.492188 L 1190.46875 877.492188 C 1190.011719 877.492188 1189.601562 877.203125 1189.445312 876.777344 L 1161.164062 798.976562 L 1123.242188 851.671875 C 1123.039062 851.949219 1122.714844 852.117188 1122.371094 852.121094 C 1122.058594 852.160156 1121.699219 851.964844 1121.492188 851.6875 L 1092.507812 813.273438 C 1092.242188 812.921875 1092.210938 812.441406 1092.441406 812.0625 L 1140.003906 732.039062 C 1138.253906 726.816406 1122.625 679.734375 1109.886719 626.226562 C 1091.808594 550.257812 1087.859375 498.214844 1098.15625 471.554688 C 1098.371094 470.996094 1099.003906 470.714844 1099.558594 470.933594 C 1100.121094 471.144531 1100.402344 471.78125 1100.183594 472.339844 C 1075.96875 535.03125 1141.5625 729.855469 1142.226562 731.8125 C 1142.226562 731.816406 1142.226562 731.824219 1142.226562 731.824219 C 1142.226562 731.828125 1142.230469 731.828125 1142.230469 731.835938 L 1162.519531 796.339844 L 1191.230469 875.316406 L 1239.839844 875.316406 L 1209.691406 736.742188 C 1209.691406 736.738281 1209.691406 736.738281 1209.691406 736.730469 C 1209.6875 736.726562 1209.6875 736.726562 1209.6875 736.714844 C 1209.324219 734.847656 1173.796875 549.730469 1172.179688 538.421875 C 1170.496094 526.640625 1175.496094 520.925781 1175.707031 520.6875 C 1176.117188 520.242188 1176.800781 520.207031 1177.242188 520.605469 C 1177.6875 521.011719 1177.726562 521.691406 1177.328125 522.144531 C 1177.25 522.234375 1172.8125 527.449219 1174.335938 538.113281 C 1175.835938 548.652344 1207.039062 711.390625 1211.332031 733.765625 C 1218.460938 723.117188 1249.265625 672.398438 1237.21875 607.6875 C 1223.625 534.714844 1199.835938 472.960938 1199.597656 472.339844 C 1199.378906 471.78125 1199.65625 471.152344 1200.214844 470.933594 C 1200.777344 470.71875 1201.40625 470.996094 1201.617188 471.550781 C 1201.859375 472.167969 1225.726562 534.105469 1239.355469 607.292969 C 1252.429688 677.519531 1215.632812 731.535156 1211.914062 736.753906 Z M 1171.945312 413.636719 C 1174.292969 415.726562 1178.292969 419.167969 1182.410156 422.140625 C 1187.992188 426.171875 1199.511719 422.570312 1205.894531 419.164062 C 1208.042969 418.019531 1210.628906 417.191406 1212.914062 416.464844 C 1214.96875 415.8125 1217.214844 415.101562 1218.464844 414.292969 Z M 1169.105469 411.425781 L 1220.550781 412.148438 C 1220.855469 412.152344 1221.144531 412.285156 1221.347656 412.515625 C 1221.554688 412.746094 1221.644531 413.054688 1221.613281 413.351562 C 1221.3125 416.085938 1217.726562 417.222656 1213.570312 418.539062 C 1211.269531 419.273438 1208.890625 420.027344 1206.917969 421.078125 C 1203.234375 423.042969 1196.816406 425.558594 1190.824219 426 L 1208.070312 447.898438 C 1208.445312 448.367188 1208.367188 449.054688 1207.890625 449.425781 C 1207.695312 449.582031 1207.453125 449.65625 1207.222656 449.65625 C 1206.898438 449.65625 1206.582031 449.515625 1206.367188 449.246094 L 1188.527344 426.59375 C 1188.394531 426.433594 1188.34375 426.242188 1188.320312 426.042969 C 1185.628906 425.945312 1183.125 425.339844 1181.132812 423.902344 C 1174.632812 419.203125 1168.40625 413.359375 1168.34375 413.300781 C 1168.019531 412.996094 1167.917969 412.515625 1168.082031 412.105469 C 1168.25 411.691406 1168.746094 411.441406 1169.105469 411.425781 Z M 1150.035156 387.867188 C 1141.164062 387.570312 1125.101562 392.589844 1120.195312 394.199219 L 1132.847656 409.976562 L 1164.285156 410.148438 L 1166.664062 401.746094 C 1165.53125 399.578125 1159.1875 388.171875 1150.035156 387.867188 Z M 1125.832031 420.664062 L 1131.015625 411.175781 L 1119.753906 397.128906 L 1118.296875 395.304688 L 1107.328125 406.59375 Z M 1088.941406 467.855469 C 1088.875 467.867188 1088.820312 467.871094 1088.753906 467.871094 C 1088.234375 467.871094 1087.773438 467.496094 1087.6875 466.964844 C 1087.582031 466.378906 1087.980469 465.816406 1088.570312 465.714844 C 1088.75 465.679688 1106.585938 462.503906 1112.773438 453.570312 C 1118.394531 445.441406 1128.71875 431.21875 1131.355469 427.59375 L 1126.242188 423.699219 C 1126.226562 423.707031 1126.214844 423.71875 1126.195312 423.722656 C 1126.128906 423.734375 1126.054688 423.746094 1125.976562 423.746094 C 1125.742188 423.746094 1125.5 423.664062 1125.308594 423.515625 L 1105.914062 408.273438 L 1078.683594 446.484375 C 1078.332031 446.976562 1077.65625 447.089844 1077.164062 446.738281 C 1076.675781 446.386719 1076.566406 445.710938 1076.910156 445.21875 L 1094.808594 420.109375 L 1087.589844 370.628906 C 1087.503906 370.035156 1087.914062 369.480469 1088.507812 369.394531 C 1089.101562 369.304688 1089.65625 369.71875 1089.742188 370.3125 L 1096.632812 417.550781 L 1104.804688 406.082031 C 1104.824219 406.054688 1104.851562 406.042969 1104.871094 406.019531 C 1104.886719 406.003906 1104.894531 405.972656 1104.910156 405.957031 L 1117.578125 392.917969 L 1117.589844 392.90625 C 1117.710938 392.78125 1117.855469 392.695312 1118.011719 392.640625 C 1118.871094 392.339844 1139.195312 385.335938 1150.109375 385.695312 C 1161.507812 386.070312 1168.511719 400.550781 1168.804688 401.171875 C 1168.914062 401.414062 1168.9375 401.679688 1168.867188 401.933594 L 1166.148438 411.539062 C 1166.015625 412.007812 1165.589844 412.332031 1165.105469 412.332031 C 1165.105469 412.332031 1165.097656 412.332031 1165.097656 412.332031 L 1132.960938 412.152344 L 1127.582031 421.992188 L 1133.523438 426.507812 C 1133.996094 426.863281 1134.085938 427.535156 1133.742188 428.007812 C 1133.613281 428.1875 1120.996094 445.503906 1114.554688 454.804688 C 1107.855469 464.496094 1089.707031 467.722656 1088.941406 467.855469 Z M 1170.722656 322.996094 C 1170.765625 322.996094 1170.820312 322.988281 1170.867188 322.984375 C 1171.1875 322.941406 1171.476562 322.753906 1171.652344 322.476562 L 1175.089844 316.855469 C 1175.402344 316.34375 1175.246094 315.671875 1174.734375 315.359375 C 1174.21875 315.050781 1173.550781 315.207031 1173.238281 315.71875 L 1170.492188 320.207031 L 1163.851562 314.042969 C 1163.414062 313.632812 1162.722656 313.65625 1162.316406 314.101562 C 1161.90625 314.542969 1161.9375 315.226562 1162.375 315.636719 L 1169.984375 322.707031 C 1170.183594 322.890625 1170.449219 322.996094 1170.722656 322.996094 Z M 1120.925781 315.066406 L 1141.03125 326.125 C 1141.199219 326.210938 1141.378906 326.257812 1141.554688 326.257812 C 1141.851562 326.257812 1142.140625 326.136719 1142.351562 325.910156 L 1151.957031 315.582031 C 1152.359375 315.140625 1152.335938 314.453125 1151.898438 314.042969 C 1151.460938 313.640625 1150.773438 313.65625 1150.363281 314.101562 L 1141.335938 323.808594 L 1121.972656 313.160156 C 1121.445312 312.871094 1120.789062 313.070312 1120.5 313.589844 C 1120.210938 314.113281 1120.402344 314.777344 1120.925781 315.066406 Z M 1163.65625 427.730469 C 1164.457031 427.730469 1165.105469 427.085938 1165.105469 426.28125 C 1165.105469 425.484375 1164.457031 424.832031 1163.65625 424.832031 C 1162.859375 424.832031 1162.207031 425.484375 1162.207031 426.28125 C 1162.207031 427.085938 1162.859375 427.730469 1163.65625 427.730469 Z M 1163.65625 429.90625 C 1161.660156 429.90625 1160.03125 428.28125 1160.03125 426.28125 C 1160.03125 424.285156 1161.660156 422.660156 1163.65625 422.660156 C 1165.652344 422.660156 1167.28125 424.285156 1167.28125 426.28125 C 1167.28125 428.28125 1165.652344 429.90625 1163.65625 429.90625 Z M 1164.378906 464.339844 C 1164.378906 465.136719 1165.03125 465.789062 1165.832031 465.789062 C 1166.628906 465.789062 1167.28125 465.136719 1167.28125 464.339844 C 1167.28125 463.535156 1166.628906 462.890625 1165.832031 462.890625 C 1165.03125 462.890625 1164.378906 463.535156 1164.378906 464.339844 Z M 1162.207031 464.339844 C 1162.207031 462.339844 1163.835938 460.710938 1165.832031 460.710938 C 1167.828125 460.710938 1169.453125 462.339844 1169.453125 464.339844 C 1169.453125 466.335938 1167.828125 467.960938 1165.832031 467.960938 C 1163.835938 467.960938 1162.207031 466.335938 1162.207031 464.339844 Z M 1158.21875 373.367188 C 1158.21875 374.171875 1158.871094 374.824219 1159.675781 374.824219 C 1160.46875 374.824219 1161.121094 374.171875 1161.121094 373.367188 C 1161.121094 372.570312 1160.46875 371.917969 1159.675781 371.917969 C 1158.871094 371.917969 1158.21875 372.570312 1158.21875 373.367188 Z M 1156.050781 373.367188 C 1156.050781 371.371094 1157.671875 369.746094 1159.675781 369.746094 C 1161.671875 369.746094 1163.292969 371.371094 1163.292969 373.367188 C 1163.292969 375.367188 1161.671875 376.992188 1159.675781 376.992188 C 1157.671875 376.992188 1156.050781 375.367188 1156.050781 373.367188 Z M 1159.308594 343.652344 C 1160.105469 343.652344 1160.757812 343 1160.757812 342.203125 C 1160.757812 341.402344 1160.105469 340.75 1159.308594 340.75 C 1158.507812 340.75 1157.863281 341.402344 1157.863281 342.203125 C 1157.863281 343 1158.507812 343.652344 1159.308594 343.652344 Z M 1159.308594 345.824219 C 1157.3125 345.824219 1155.683594 344.203125 1155.683594 342.203125 C 1155.683594 340.207031 1157.3125 338.578125 1159.308594 338.578125 C 1161.308594 338.578125 1162.929688 340.207031 1162.929688 342.203125 C 1162.929688 344.203125 1161.308594 345.824219 1159.308594 345.824219 Z M 1159.828125 401.527344 C 1160.042969 401.804688 1160.359375 401.949219 1160.683594 401.949219 C 1160.921875 401.949219 1161.152344 401.875 1161.351562 401.71875 C 1161.828125 401.347656 1161.90625 400.660156 1161.539062 400.1875 C 1157.890625 395.515625 1152.632812 391.722656 1152.40625 391.566406 C 1151.921875 391.214844 1151.242188 391.324219 1150.894531 391.816406 C 1150.542969 392.308594 1150.652344 392.980469 1151.144531 393.335938 C 1151.195312 393.371094 1156.371094 397.105469 1159.828125 401.527344 Z M 1156.777344 407.816406 C 1156.960938 408.214844 1157.355469 408.453125 1157.769531 408.453125 C 1157.917969 408.453125 1158.070312 408.421875 1158.214844 408.359375 C 1158.761719 408.109375 1159.003906 407.464844 1158.757812 406.921875 C 1156.824219 402.636719 1148.800781 396.5625 1148.464844 396.308594 C 1147.980469 395.945312 1147.300781 396.046875 1146.941406 396.523438 C 1146.578125 397 1146.675781 397.683594 1147.15625 398.046875 C 1147.234375 398.105469 1155.066406 404.039062 1156.777344 407.816406 Z M 1135.535156 400.742188 L 1148.582031 409.074219 C 1148.757812 409.191406 1148.960938 409.246094 1149.164062 409.246094 C 1149.519531 409.246094 1149.875 409.070312 1150.082031 408.746094 C 1150.402344 408.242188 1150.253906 407.566406 1149.753906 407.246094 L 1136.707031 398.914062 C 1136.207031 398.589844 1135.53125 398.734375 1135.207031 399.242188 C 1134.882812 399.75 1135.035156 400.417969 1135.535156 400.742188 Z M 1156.34375 295.5625 C 1156.488281 295.710938 1159.816406 299.1875 1164.734375 300.054688 C 1164.800781 300.066406 1164.863281 300.070312 1164.925781 300.070312 C 1165.445312 300.070312 1165.902344 299.703125 1165.992188 299.171875 C 1166.097656 298.582031 1165.707031 298.015625 1165.109375 297.917969 C 1160.921875 297.171875 1157.953125 294.101562 1157.925781 294.066406 C 1157.507812 293.632812 1156.824219 293.617188 1156.390625 294.027344 C 1155.949219 294.441406 1155.933594 295.128906 1156.34375 295.5625 Z M 1176.878906 278.054688 C 1177.058594 278.054688 1177.238281 278.007812 1177.40625 277.921875 C 1181.152344 275.859375 1183.066406 277.632812 1183.171875 277.730469 C 1183.59375 278.160156 1184.273438 278.164062 1184.699219 277.75 C 1185.132812 277.332031 1185.144531 276.644531 1184.730469 276.210938 C 1184.601562 276.085938 1181.648438 273.105469 1176.359375 276.015625 C 1175.828125 276.304688 1175.640625 276.964844 1175.925781 277.488281 C 1176.125 277.851562 1176.5 278.054688 1176.878906 278.054688 Z M 1157.078125 271.488281 C 1156.503906 271.675781 1156.195312 272.28125 1156.371094 272.851562 C 1156.550781 273.425781 1157.15625 273.742188 1157.734375 273.5625 C 1157.792969 273.546875 1163.078125 271.945312 1166.085938 275.496094 C 1166.300781 275.75 1166.613281 275.878906 1166.917969 275.878906 C 1167.164062 275.878906 1167.414062 275.796875 1167.621094 275.625 C 1168.078125 275.230469 1168.136719 274.550781 1167.75 274.089844 C 1163.789062 269.421875 1157.347656 271.402344 1157.078125 271.488281 Z M 1167.097656 292.976562 L 1170.847656 294.292969 L 1171.085938 285.09375 C 1171.097656 284.492188 1171.640625 284.042969 1172.199219 284.035156 C 1172.800781 284.046875 1173.273438 284.550781 1173.253906 285.152344 L 1172.984375 295.839844 C 1172.976562 296.191406 1172.800781 296.507812 1172.515625 296.710938 C 1172.332031 296.832031 1172.117188 296.902344 1171.898438 296.902344 C 1171.777344 296.902344 1171.65625 296.878906 1171.539062 296.835938 L 1166.375 295.023438 C 1165.808594 294.828125 1165.507812 294.203125 1165.710938 293.640625 C 1165.90625 293.074219 1166.53125 292.773438 1167.097656 292.976562 " fill-opacity="1" fill-rule="nonzero"/></g><g clip-path="url(#a1e0f9433e)"><path fill="#100f0d" d="M 1124.605469 408.695312 C 1123.257812 408.699219 1122.175781 409.796875 1122.175781 411.148438 C 1122.175781 412.5 1123.269531 413.597656 1124.628906 413.597656 L 1268.351562 413.597656 L 1310.378906 338.757812 L 1191.730469 338.757812 L 1157.320312 408.707031 C 1157.320312 408.554688 1132.5625 408.660156 1124.605469 408.695312 Z M 1178.675781 281.269531 C 1177.949219 281.269531 1177.359375 281.859375 1177.359375 282.582031 C 1177.359375 283.308594 1177.949219 283.898438 1178.675781 283.898438 C 1179.394531 283.898438 1179.984375 283.308594 1179.984375 282.582031 C 1179.984375 281.859375 1179.394531 281.269531 1178.675781 281.269531 Z M 1161.394531 279.550781 C 1161.394531 280.277344 1160.804688 280.859375 1160.078125 280.859375 C 1159.355469 280.859375 1158.769531 280.277344 1158.769531 279.550781 C 1158.769531 278.824219 1159.355469 278.234375 1160.078125 278.234375 C 1160.804688 278.234375 1161.394531 278.824219 1161.394531 279.550781 " fill-opacity="1" fill-rule="nonzero"/></g><g clip-path="url(#7b96489f7b)"><g clip-path="url(#25ff961129)"><g clip-path="url(#a82445ce95)"><g clip-path="url(#0e51dbf9c0)"><path fill="#e65100" d="M 1247.566406 476.398438 L 1226.105469 484.234375 L 1235.835938 505 L 1245.59375 504.296875 L 1253.507812 498.546875 Z M 1247.566406 476.398438 " fill-opacity="1" fill-rule="nonzero"/></g></g></g></g><g clip-path="url(#9289bcf1cc)"><g clip-path="url(#265968188a)"><g clip-path="url(#a3875ec761)"><g clip-path="url(#cc122a872a)"><path fill="#ff6d00" d="M 1237.527344 482.207031 L 1244.878906 502.339844 L 1251.210938 497.742188 L 1246.171875 479.050781 Z M 1237.527344 482.207031 " fill-opacity="1" fill-rule="nonzero"/></g></g></g></g><g clip-path="url(#152cccc5ab)"><g clip-path="url(#c308b9dfb0)"><g clip-path="url(#9b63ffd726)"><g clip-path="url(#0f6b00114a)"><path fill="#ffffff" d="M 1241.445312 492.9375 L 1240.523438 490.414062 L 1245.949219 488.429688 L 1248.160156 495.851562 L 1243.773438 499.3125 L 1242.804688 496.660156 L 1245.070312 494.832031 L 1244.222656 491.921875 Z M 1245.21875 485.835938 L 1244.484375 483.242188 L 1238.679688 485.363281 L 1239.601562 487.886719 Z M 1245.21875 485.835938 " fill-opacity="1" fill-rule="nonzero"/></g></g></g></g><g clip-path="url(#086d65b76c)"><g clip-path="url(#e57753245c)"><g clip-path="url(#8ae9a91eb6)"><g clip-path="url(#3c5d020950)"><path fill="#eeeeee" d="M 1242.804688 496.660156 L 1243.773438 499.3125 L 1238.1875 499.492188 L 1236.667969 496.113281 L 1239.191406 495.191406 L 1239.894531 496.722656 Z M 1236.507812 489.019531 L 1239.601562 487.886719 L 1238.679688 485.363281 L 1232.9375 487.460938 L 1236.144531 494.875 L 1241.445312 492.9375 L 1240.523438 490.414062 L 1237.621094 491.472656 Z M 1236.507812 489.019531 " fill-opacity="1" fill-rule="nonzero"/></g></g></g></g><g clip-path="url(#4946c718b3)"><g clip-path="url(#f92a8438be)"><g clip-path="url(#af4f011dca)"><g clip-path="url(#a6230b67ff)"><path fill="#c85103" d="M 1220.527344 314.585938 L 1216.453125 293.886719 L 1208.101562 291.691406 L 1200.339844 295.472656 L 1200.386719 316.570312 Z M 1216.875 311.929688 L 1203.460938 313.25 L 1203.433594 310.242188 L 1208.875 306.691406 L 1206.429688 306.929688 L 1203.53125 307.214844 L 1203.40625 307.226562 L 1203.332031 301.199219 L 1203.316406 301.207031 L 1203.296875 298.195312 L 1208.496094 295.675781 L 1214.09375 297.132812 L 1214.820312 301.082031 L 1211.777344 301.378906 L 1211.417969 299.371094 L 1208.796875 298.753906 L 1206.34375 299.855469 L 1206.390625 303.917969 L 1215.191406 303.054688 L 1215.742188 306.011719 L 1210.085938 309.585938 L 1216.304688 308.972656 Z M 1216.875 311.929688 " fill-opacity="1" fill-rule="nonzero"/></g></g></g></g><g clip-path="url(#45297abd63)"><g clip-path="url(#de0cff134f)"><g clip-path="url(#5f2dfcadac)"><g clip-path="url(#548b304505)"><path fill="#c85103" d="M 963.972656 533.394531 C 963.550781 534.707031 962.144531 535.429688 960.828125 535.007812 L 948.453125 531.027344 C 947.140625 530.605469 946.414062 529.195312 946.839844 527.882812 L 950.816406 515.507812 C 951.242188 514.191406 952.648438 513.46875 953.964844 513.890625 L 966.339844 517.871094 C 967.652344 518.292969 968.375 519.703125 967.953125 521.015625 Z M 963.972656 533.394531 " fill-opacity="1" fill-rule="nonzero"/></g></g></g></g><g clip-path="url(#c62788b496)"><g clip-path="url(#a65b80375f)"><g clip-path="url(#df1934d091)"><g clip-path="url(#1e86c89a19)"><path fill="#ffffff" d="M 961.449219 526.59375 C 961.277344 526.066406 960.925781 525.625 960.398438 525.285156 C 960.398438 525.285156 960.941406 525.265625 961.589844 524.75 C 961.988281 524.414062 962.28125 523.953125 962.472656 523.363281 C 962.800781 522.339844 962.683594 521.433594 962.113281 520.65625 C 961.542969 519.878906 960.824219 519.25 959.398438 518.792969 L 954.949219 517.359375 L 951.273438 528.785156 L 956.238281 530.378906 C 957.589844 530.804688 958.695312 530.839844 959.566406 530.503906 C 960.433594 530.160156 961.046875 529.429688 961.40625 528.3125 C 961.605469 527.695312 961.621094 527.121094 961.449219 526.59375 Z M 957.191406 520.183594 C 957.191406 520.183594 959.175781 520.820312 959.214844 520.832031 C 959.9375 521.066406 960.335938 521.839844 960.105469 522.5625 C 959.871094 523.285156 959.097656 523.683594 958.375 523.453125 C 958.335938 523.4375 956.351562 522.800781 956.351562 522.800781 Z M 957.125 528.5625 L 954.742188 527.796875 L 955.660156 524.941406 L 958.042969 525.707031 C 958.832031 525.960938 959.265625 526.804688 959.011719 527.59375 C 958.757812 528.386719 957.914062 528.816406 957.125 528.5625 Z M 957.125 528.5625 " fill-opacity="1" fill-rule="nonzero"/></g></g></g></g><g clip-path="url(#a3f7863421)"><g clip-path="url(#0f1b73a322)"><g clip-path="url(#408809f99f)"><g clip-path="url(#87e08eda54)"><path fill="#c85103" d="M 963.972656 240.9375 C 963.550781 242.25 962.144531 242.972656 960.828125 242.550781 L 948.453125 238.570312 C 947.140625 238.148438 946.414062 236.742188 946.839844 235.425781 L 950.816406 223.050781 C 951.242188 221.734375 952.648438 221.011719 953.964844 221.4375 L 966.339844 225.414062 C 967.652344 225.839844 968.375 227.246094 967.953125 228.5625 Z M 963.972656 240.9375 " fill-opacity="1" fill-rule="nonzero"/></g></g></g></g><g clip-path="url(#03bc814ef8)"><g clip-path="url(#8f1cbe5842)"><g clip-path="url(#7d55c4f407)"><g clip-path="url(#4df82daf18)"><path fill="#ffffff" d="M 961.449219 234.136719 C 961.277344 233.609375 960.925781 233.171875 960.398438 232.828125 C 960.398438 232.828125 960.941406 232.808594 961.589844 232.292969 C 961.988281 231.957031 962.28125 231.496094 962.472656 230.90625 C 962.800781 229.882812 962.683594 228.976562 962.113281 228.199219 C 961.542969 227.425781 960.824219 226.792969 959.398438 226.335938 L 954.949219 224.902344 L 951.273438 236.328125 L 956.238281 237.925781 C 957.589844 238.347656 958.695312 238.382812 959.566406 238.046875 C 960.433594 237.703125 961.046875 236.976562 961.40625 235.855469 C 961.605469 235.238281 961.621094 234.664062 961.449219 234.136719 Z M 957.191406 227.726562 C 957.191406 227.726562 959.175781 228.363281 959.214844 228.375 C 959.9375 228.609375 960.335938 229.382812 960.105469 230.105469 C 959.871094 230.832031 959.097656 231.226562 958.375 230.996094 C 958.335938 230.984375 956.351562 230.34375 956.351562 230.34375 Z M 957.125 236.109375 L 954.742188 235.34375 L 955.660156 232.484375 L 958.042969 233.25 C 958.832031 233.503906 959.265625 234.347656 959.011719 235.140625 C 958.757812 235.929688 957.914062 236.363281 957.125 236.109375 Z M 957.125 236.109375 " fill-opacity="1" fill-rule="nonzero"/></g></g></g></g><g clip-path="url(#6c71ac6a71)"><g clip-path="url(#30d37ab1db)"><g clip-path="url(#e3c7c9d729)"><g clip-path="url(#aa0205e6cd)"><path fill="#c85103" d="M 908.527344 522.585938 L 904.453125 501.886719 L 896.101562 499.695312 L 888.339844 503.472656 L 888.386719 524.570312 Z M 904.875 519.929688 L 891.460938 521.253906 L 891.429688 518.242188 L 896.871094 514.691406 L 894.429688 514.929688 L 891.53125 515.21875 L 891.40625 515.230469 L 891.332031 509.199219 L 891.316406 509.210938 L 891.296875 506.195312 L 896.496094 503.675781 L 902.09375 505.132812 L 902.816406 509.082031 L 899.777344 509.378906 L 899.417969 507.371094 L 896.796875 506.753906 L 894.34375 507.855469 L 894.390625 511.921875 L 903.1875 511.054688 L 903.742188 514.015625 L 898.085938 517.585938 L 904.304688 516.972656 Z M 904.875 519.929688 " fill-opacity="1" fill-rule="nonzero"/></g></g></g></g><g clip-path="url(#fc55312c37)"><g clip-path="url(#6ab3955d36)"><g clip-path="url(#ac40eab2f5)"><g clip-path="url(#eda83848f9)"><path fill="#e65100" d="M 1100.222656 264.660156 L 1084.75 270.308594 L 1091.765625 285.28125 L 1098.800781 284.773438 L 1104.503906 280.628906 Z M 1100.222656 264.660156 " fill-opacity="1" fill-rule="nonzero"/></g></g></g></g><g clip-path="url(#c76287f1c4)"><g clip-path="url(#7d43079a75)"><g clip-path="url(#615215480a)"><g clip-path="url(#9113877c5f)"><path fill="#ff6d00" d="M 1092.984375 268.851562 L 1098.285156 283.363281 L 1102.847656 280.046875 L 1099.21875 266.574219 Z M 1092.984375 268.851562 " fill-opacity="1" fill-rule="nonzero"/></g></g></g></g><g clip-path="url(#e671c33160)"><g clip-path="url(#af55c5dcfe)"><g clip-path="url(#859e552030)"><g clip-path="url(#6978a0756e)"><path fill="#ffffff" d="M 1095.808594 276.585938 L 1095.144531 274.765625 L 1099.058594 273.335938 L 1100.648438 278.683594 L 1097.488281 281.179688 L 1096.789062 279.269531 L 1098.421875 277.953125 L 1097.8125 275.855469 Z M 1098.53125 271.464844 L 1098 269.597656 L 1093.816406 271.125 L 1094.480469 272.945312 Z M 1098.53125 271.464844 " fill-opacity="1" fill-rule="nonzero"/></g></g></g></g><g clip-path="url(#eeb0cbc50a)"><g clip-path="url(#3781386202)"><g clip-path="url(#bc50edfa73)"><g clip-path="url(#383f399a74)"><path fill="#eeeeee" d="M 1096.789062 279.269531 L 1097.488281 281.179688 L 1093.460938 281.308594 L 1092.363281 278.875 L 1094.183594 278.210938 L 1094.691406 279.3125 Z M 1092.25 273.757812 L 1094.480469 272.945312 L 1093.816406 271.125 L 1089.675781 272.636719 L 1091.988281 277.980469 L 1095.808594 276.585938 L 1095.144531 274.765625 L 1093.050781 275.53125 Z M 1092.25 273.757812 " fill-opacity="1" fill-rule="nonzero"/></g></g></g></g><g clip-path="url(#0fdf874554)"><path fill="#f9943b" d="M 1240.859375 261.265625 C 1240.644531 261.265625 1240.4375 261.355469 1240.292969 261.519531 C 1240.148438 261.683594 1240.082031 261.902344 1240.109375 262.117188 L 1242.132812 278.300781 C 1242.164062 278.554688 1242.316406 278.773438 1242.542969 278.886719 L 1250.636719 282.933594 C 1250.851562 283.039062 1251.101562 283.039062 1251.316406 282.933594 L 1259.410156 278.886719 C 1259.636719 278.773438 1259.792969 278.554688 1259.824219 278.300781 L 1261.847656 262.117188 C 1261.875 261.902344 1261.804688 261.683594 1261.660156 261.519531 C 1261.519531 261.355469 1261.3125 261.265625 1261.09375 261.265625 Z M 1240.859375 261.265625 " fill-opacity="1" fill-rule="nonzero"/></g><path fill="#eceff1" d="M 1249.460938 264.296875 C 1249.878906 264.296875 1250.21875 264.636719 1250.21875 265.058594 L 1250.21875 278.207031 C 1250.21875 278.480469 1250.074219 278.730469 1249.839844 278.863281 C 1249.605469 279 1249.316406 279 1249.082031 278.867188 L 1245.542969 276.84375 C 1245.179688 276.636719 1245.050781 276.171875 1245.261719 275.808594 C 1245.46875 275.445312 1245.929688 275.320312 1246.296875 275.527344 L 1248.699219 276.902344 L 1248.699219 265.058594 C 1248.699219 264.636719 1249.039062 264.296875 1249.460938 264.296875 Z M 1249.460938 264.296875 " fill-opacity="1" fill-rule="evenodd"/><path fill="#eceff1" d="M 1251.734375 265.058594 C 1251.734375 264.636719 1252.074219 264.296875 1252.496094 264.296875 L 1257.550781 264.296875 C 1257.972656 264.296875 1258.3125 264.636719 1258.3125 265.058594 C 1258.3125 265.476562 1257.972656 265.816406 1257.550781 265.816406 L 1253.253906 265.816406 L 1253.253906 270.6875 L 1256.882812 269.878906 C 1257.117188 269.828125 1257.367188 269.890625 1257.546875 270.050781 C 1257.730469 270.210938 1257.824219 270.449219 1257.800781 270.691406 L 1257.296875 276.253906 C 1257.273438 276.515625 1257.113281 276.746094 1256.878906 276.863281 L 1252.832031 278.886719 C 1252.457031 279.074219 1252.003906 278.921875 1251.816406 278.546875 C 1251.628906 278.171875 1251.78125 277.71875 1252.15625 277.53125 L 1255.824219 275.695312 L 1256.195312 271.585938 L 1252.660156 272.375 C 1252.433594 272.421875 1252.199219 272.367188 1252.019531 272.226562 C 1251.839844 272.082031 1251.734375 271.863281 1251.734375 271.632812 Z M 1251.734375 265.058594 " fill-opacity="1" fill-rule="evenodd"/><g clip-path="url(#659994f4cd)"><path fill="#f9943b" d="M 1070.527344 566.949219 C 1070.308594 566.949219 1070.101562 567.042969 1069.960938 567.207031 C 1069.816406 567.371094 1069.75 567.585938 1069.773438 567.800781 L 1071.796875 583.988281 C 1071.828125 584.238281 1071.984375 584.460938 1072.210938 584.574219 L 1080.304688 588.621094 C 1080.519531 588.726562 1080.769531 588.726562 1080.984375 588.621094 L 1089.078125 584.574219 C 1089.304688 584.460938 1089.457031 584.238281 1089.492188 583.988281 L 1091.511719 567.800781 C 1091.539062 567.585938 1091.472656 567.371094 1091.328125 567.207031 C 1091.183594 567.042969 1090.976562 566.949219 1090.761719 566.949219 Z M 1070.527344 566.949219 " fill-opacity="1" fill-rule="nonzero"/></g><path fill="#eceff1" d="M 1079.125 569.984375 C 1079.546875 569.984375 1079.886719 570.324219 1079.886719 570.742188 L 1079.886719 583.894531 C 1079.886719 584.164062 1079.742188 584.414062 1079.507812 584.550781 C 1079.273438 584.6875 1078.984375 584.6875 1078.75 584.554688 L 1075.210938 582.53125 C 1074.847656 582.320312 1074.71875 581.859375 1074.925781 581.496094 C 1075.136719 581.128906 1075.597656 581.003906 1075.960938 581.210938 L 1078.367188 582.585938 L 1078.367188 570.742188 C 1078.367188 570.324219 1078.707031 569.984375 1079.125 569.984375 Z M 1079.125 569.984375 " fill-opacity="1" fill-rule="evenodd"/><path fill="#eceff1" d="M 1081.402344 570.742188 C 1081.402344 570.324219 1081.742188 569.984375 1082.160156 569.984375 L 1087.21875 569.984375 C 1087.640625 569.984375 1087.980469 570.324219 1087.980469 570.742188 C 1087.980469 571.160156 1087.640625 571.5 1087.21875 571.5 L 1082.921875 571.5 L 1082.921875 576.371094 L 1086.550781 575.566406 C 1086.785156 575.515625 1087.035156 575.578125 1087.214844 575.738281 C 1087.398438 575.898438 1087.492188 576.132812 1087.46875 576.375 L 1086.964844 581.941406 C 1086.941406 582.203125 1086.78125 582.433594 1086.546875 582.550781 L 1082.5 584.574219 C 1082.125 584.761719 1081.671875 584.609375 1081.484375 584.234375 C 1081.296875 583.859375 1081.449219 583.402344 1081.824219 583.214844 L 1085.492188 581.382812 L 1085.863281 577.273438 L 1082.328125 578.058594 C 1082.101562 578.109375 1081.867188 578.054688 1081.6875 577.910156 C 1081.507812 577.765625 1081.402344 577.546875 1081.402344 577.320312 Z M 1081.402344 570.742188 " fill-opacity="1" fill-rule="evenodd"/></svg>